<svg width="35" height="35" viewBox="0 0 35 35" fill="none" xmlns="http://www.w3.org/2000/svg">
<g id="ion:cube">
<path id="Vector" d="M30.1397 9.31739C30.1809 9.29331 30.2152 9.25883 30.239 9.21739C30.2628 9.17595 30.2753 9.129 30.2753 9.08121C30.2753 9.03342 30.2628 8.98647 30.239 8.94503C30.2152 8.90359 30.1809 8.86911 30.1397 8.84503L19.6984 2.77882C19.0304 2.39157 18.2719 2.18764 17.4997 2.18764C16.7275 2.18764 15.969 2.39157 15.3009 2.77882L4.86172 8.84503C4.82045 8.86911 4.7862 8.90359 4.7624 8.94503C4.7386 8.98647 4.72608 9.03342 4.72608 9.08121C4.72608 9.129 4.7386 9.17595 4.7624 9.21739C4.7862 9.25883 4.82045 9.29331 4.86172 9.31739L17.3633 16.6715C17.4053 16.6963 17.4533 16.7093 17.5021 16.7093C17.5509 16.7093 17.5988 16.6963 17.6408 16.6715L30.1397 9.31739ZM3.69141 11.1774C3.64971 11.1534 3.6024 11.1407 3.55425 11.1408C3.5061 11.1409 3.45882 11.1537 3.4172 11.1779C3.37558 11.2021 3.34109 11.2369 3.31722 11.2787C3.29335 11.3205 3.28094 11.3679 3.28126 11.416V23.303C3.28229 23.8759 3.43327 24.4384 3.71917 24.9348C4.00508 25.4312 4.41596 25.8441 4.91094 26.1324L15.9961 32.779C16.0376 32.803 16.0848 32.8156 16.1327 32.8156C16.1807 32.8157 16.2279 32.803 16.2694 32.7791C16.311 32.7551 16.3455 32.7206 16.3695 32.6791C16.3935 32.6376 16.4062 32.5905 16.4063 32.5425V18.751C16.4062 18.703 16.3935 18.6559 16.3696 18.6144C16.3456 18.5729 16.3111 18.5384 16.2695 18.5145L3.69141 11.1774ZM18.5938 18.7988V32.5391C18.5938 32.587 18.6065 32.6342 18.6305 32.6757C18.6545 32.7172 18.689 32.7517 18.7306 32.7757C18.7722 32.7996 18.8193 32.8122 18.8673 32.8122C18.9152 32.8122 18.9624 32.7996 19.0039 32.7756L30.0884 26.129C30.583 25.8411 30.9937 25.4288 31.2797 24.933C31.5657 24.4373 31.7171 23.8754 31.7188 23.303V11.416C31.7186 11.3681 31.7058 11.3211 31.6818 11.2796C31.6577 11.2382 31.6232 11.2038 31.5816 11.1799C31.5401 11.1561 31.493 11.1435 31.4451 11.1435C31.3972 11.1436 31.3501 11.1562 31.3086 11.1802L18.7305 18.563C18.689 18.5869 18.6546 18.6213 18.6306 18.6627C18.6066 18.704 18.5939 18.751 18.5938 18.7988Z" fill="white"/>
</g>
</svg>
