<svg width="35" height="35" viewBox="0 0 35 35" fill="none" xmlns="http://www.w3.org/2000/svg">
<g id="mdi:truck">
<path id="Vector" d="M26.25 26.9792C25.6699 26.9792 25.1135 26.7487 24.7032 26.3385C24.293 25.9282 24.0625 25.3718 24.0625 24.7917C24.0625 24.2115 24.293 23.6551 24.7032 23.2449C25.1135 22.8346 25.6699 22.6042 26.25 22.6042C26.8302 22.6042 27.3866 22.8346 27.7968 23.2449C28.2071 23.6551 28.4375 24.2115 28.4375 24.7917C28.4375 25.3718 28.2071 25.9282 27.7968 26.3385C27.3866 26.7487 26.8302 26.9792 26.25 26.9792ZM28.4375 13.8542L30.0282 15.883C30.5427 16.5393 30.0751 17.5 29.2412 17.5H25.7917C25.2394 17.5 24.7917 17.0523 24.7917 16.5V13.8542M8.75004 26.9792C8.16988 26.9792 7.61348 26.7487 7.20324 26.3385C6.79301 25.9282 6.56254 25.3718 6.56254 24.7917C6.56254 24.2115 6.79301 23.6551 7.20324 23.2449C7.61348 22.8346 8.16988 22.6042 8.75004 22.6042C9.3302 22.6042 9.8866 22.8346 10.2968 23.2449C10.7071 23.6551 10.9375 24.2115 10.9375 24.7917C10.9375 25.3718 10.7071 25.9282 10.2968 26.3385C9.8866 26.7487 9.3302 26.9792 8.75004 26.9792ZM29.4667 12.0667C29.2779 11.8149 28.9815 11.6667 28.6667 11.6667H25.7917C25.2394 11.6667 24.7917 11.219 24.7917 10.6667V6.83334C24.7917 6.28105 24.344 5.83334 23.7917 5.83334H4.37504C2.75629 5.83334 1.45837 7.13125 1.45837 8.75V23.7917C1.45837 24.344 1.90609 24.7917 2.45837 24.7917H4.37504C4.37504 25.952 4.83598 27.0648 5.65645 27.8853C6.47692 28.7057 7.58972 29.1667 8.75004 29.1667C9.91036 29.1667 11.0232 28.7057 11.8436 27.8853C12.6641 27.0648 13.125 25.952 13.125 24.7917H21.875C21.875 25.952 22.336 27.0648 23.1564 27.8853C23.9769 28.7057 25.0897 29.1667 26.25 29.1667C27.4104 29.1667 28.5232 28.7057 29.3436 27.8853C30.1641 27.0648 30.625 25.952 30.625 24.7917H32.5417C33.094 24.7917 33.5417 24.344 33.5417 23.7917V17.8333C33.5417 17.617 33.4715 17.4064 33.3417 17.2333L29.4667 12.0667Z" fill="white"/>
</g>
</svg>
