<svg width="60" height="60" viewBox="0 0 60 60" fill="none" xmlns="http://www.w3.org/2000/svg">
<path d="M7.5 43.125V52.5H16.875L44.525 24.85L35.15 15.475L7.5 43.125ZM51.775 17.6C52.0068 17.3687 52.1906 17.094 52.3161 16.7916C52.4415 16.4891 52.5061 16.1649 52.5061 15.8375C52.5061 15.5101 52.4415 15.1859 52.3161 14.8834C52.1906 14.581 52.0068 14.3063 51.775 14.075L45.925 8.22501C45.6937 7.99325 45.419 7.80938 45.1166 7.68393C44.8141 7.55847 44.4899 7.4939 44.1625 7.4939C43.8351 7.4939 43.5109 7.55847 43.2084 7.68393C42.906 7.80938 42.6313 7.99325 42.4 8.22501L37.825 12.8L47.2 22.175L51.775 17.6Z" fill="#FFA800"/>
</svg>
