<svg width="40" height="50" viewBox="0 0 40 50" fill="none" xmlns="http://www.w3.org/2000/svg">
<path fill-rule="evenodd" clip-rule="evenodd" d="M20 0V16.25C20 17.2446 20.3951 18.1984 21.0983 18.9017C21.8016 19.6049 22.7554 20 23.75 20H40V45C40 46.3261 39.4732 47.5979 38.5355 48.5355C37.5979 49.4732 36.3261 50 35 50H5C3.67392 50 2.40215 49.4732 1.46447 48.5355C0.526784 47.5979 0 46.3261 0 45V5C0 3.67392 0.526784 2.40215 1.46447 1.46447C2.40215 0.526784 3.67392 0 5 0H20ZM20 22.5C19.337 22.5 18.7011 22.7634 18.2322 23.2322C17.7634 23.7011 17.5 24.337 17.5 25V31.77L16.465 30.735C15.9935 30.2796 15.362 30.0276 14.7065 30.0333C14.051 30.039 13.424 30.3019 12.9605 30.7655C12.4969 31.229 12.234 31.856 12.2283 32.5115C12.2226 33.167 12.4746 33.7985 12.93 34.27L18.23 39.575C18.4622 39.8074 18.7379 39.9918 19.0414 40.1177C19.3449 40.2435 19.6702 40.3082 19.9988 40.3082C20.3273 40.3082 20.6526 40.2435 20.9561 40.1177C21.2596 39.9918 21.5353 39.8074 21.7675 39.575L27.07 34.27C27.3088 34.0394 27.4992 33.7635 27.6303 33.4585C27.7613 33.1535 27.8302 32.8255 27.8331 32.4935C27.836 32.1616 27.7728 31.8324 27.6471 31.5251C27.5214 31.2179 27.3357 30.9387 27.101 30.704C26.8663 30.4693 26.5871 30.2836 26.2799 30.1579C25.9726 30.0322 25.6434 29.969 25.3115 29.9719C24.9795 29.9748 24.6515 30.0437 24.3465 30.1747C24.0415 30.3058 23.7656 30.4962 23.535 30.735L22.5 31.77V25C22.5 24.337 22.2366 23.7011 21.7678 23.2322C21.2989 22.7634 20.663 22.5 20 22.5ZM25 0.1075C25.9472 0.308388 26.8157 0.779979 27.5 1.465L38.535 12.5C39.22 13.1843 39.6916 14.0528 39.8925 15H25V0.1075Z" fill="white"/>
</svg>
