<svg width="439" height="98" viewBox="0 0 439 98" fill="none" xmlns="http://www.w3.org/2000/svg">
<path d="M40.856 0.879997C48.152 0.879997 53.336 2.48 56.408 5.68C58.712 8.112 59.864 11.184 59.864 14.896C59.864 16.176 59.736 17.52 59.48 18.928L58.136 26.416C57.368 30.576 56.024 33.936 54.104 36.496C52.248 39.056 50.168 40.88 47.864 41.968L56.6 70H37.208L29.144 44.176H23.192L19.256 70H0.824L13.016 0.879997H40.856ZM34.808 15.856H27.608L25.112 32.56H31.832C35.224 32.56 37.656 31.76 39.128 30.16C40.6 28.496 41.336 26.32 41.336 23.632C41.336 18.448 39.16 15.856 34.808 15.856ZM92.2535 22.48C99.1655 22.48 104.382 23.984 107.902 26.992C110.654 29.36 112.03 32.656 112.03 36.88C112.03 38.288 111.87 39.824 111.55 41.488L109.534 52.72C108.318 59.504 105.47 64.304 100.99 67.12C96.5735 69.936 90.6535 71.344 83.2295 71.344C75.8055 71.344 70.3655 69.936 66.9095 67.12C64.3495 65.008 63.0695 61.84 63.0695 57.616C63.0695 56.144 63.2295 54.512 63.5495 52.72L65.5655 41.488C67.8055 28.816 76.7015 22.48 92.2535 22.48ZM94.8455 43.408C94.9735 42.768 95.0375 41.968 95.0375 41.008C95.0375 39.984 94.6215 38.864 93.7895 37.648C92.9575 36.432 91.4855 35.824 89.3735 35.824C87.3255 35.824 85.5975 36.528 84.1895 37.936C82.7815 39.28 81.8855 41.104 81.5015 43.408L80.2535 50.608C80.1255 51.248 80.0615 52.08 80.0615 53.104C80.0615 54.064 80.4775 55.12 81.3095 56.272C82.1415 57.424 83.5815 58 85.6295 58C87.7415 58 89.5015 57.296 90.9095 55.888C92.3175 54.416 93.2135 52.656 93.5975 50.608L94.8455 43.408ZM164.009 55.216C164.009 56.88 164.841 57.712 166.505 57.712C168.233 57.712 169.673 57.392 170.825 56.752L170.345 67.6C167.273 70.096 163.817 71.344 159.977 71.344C152.745 71.344 148.809 68.56 148.169 62.992C144.329 68.56 139.145 71.344 132.617 71.344C126.153 71.344 121.961 69.872 120.041 66.928C118.761 65.072 118.121 62.96 118.121 60.592C118.121 58.224 118.313 56.048 118.697 54.064L124.073 23.824H140.393L135.881 49.36C135.689 50.512 135.593 51.664 135.593 52.816C135.593 55.888 137.321 57.424 140.777 57.424C143.657 57.424 145.961 56.432 147.689 54.448L153.161 23.824H169.481L164.105 54.064C164.041 54.448 164.009 54.832 164.009 55.216ZM197.344 71.344C189.92 71.344 184.576 69.68 181.312 66.352C178.88 63.92 177.664 60.656 177.664 56.56C177.664 55.216 177.792 53.776 178.048 52.24L184.576 15.088L202.144 7.792L199.359 23.824H225.856L223.456 37.36H196.96L195.04 48.208C194.784 49.424 194.656 50.512 194.656 51.472C194.656 55.504 196.576 57.52 200.416 57.52C202.464 57.52 204.16 56.656 205.504 54.928C206.912 53.2 207.872 50.896 208.384 48.016H224.32C221.632 63.568 212.64 71.344 197.344 71.344ZM248.879 71.344C235.567 71.344 228.911 66.736 228.911 57.52C228.911 56.24 229.039 54.864 229.295 53.392L231.311 41.488C232.399 35.344 235.215 30.64 239.759 27.376C244.367 24.048 250.447 22.384 257.999 22.384C270.863 22.384 277.295 27.248 277.295 36.976C277.295 38.384 277.167 39.92 276.911 41.584L275.759 48.4H246.479L246.095 50.608C245.967 51.376 245.903 52.08 245.903 52.72C245.903 56.24 247.983 58 252.143 58C253.679 58 254.991 57.52 256.079 56.56C257.167 55.6 257.807 54.48 257.999 53.2L273.935 53.392C271.823 65.36 263.471 71.344 248.879 71.344ZM260.399 42.544C260.655 41.456 260.783 40.464 260.783 39.568C260.783 38.608 260.367 37.648 259.535 36.688C258.703 35.728 257.359 35.248 255.503 35.248C253.711 35.248 252.047 35.856 250.511 37.072C249.039 38.288 248.015 40.112 247.439 42.544H260.399ZM325.944 70H282.168L294.36 0.879997H311.64L302.136 55.024H328.632L325.944 70ZM362.629 22.48C369.541 22.48 374.757 23.984 378.277 26.992C381.029 29.36 382.405 32.656 382.405 36.88C382.405 38.288 382.245 39.824 381.925 41.488L379.909 52.72C378.693 59.504 375.845 64.304 371.365 67.12C366.949 69.936 361.029 71.344 353.605 71.344C346.181 71.344 340.741 69.936 337.285 67.12C334.725 65.008 333.445 61.84 333.445 57.616C333.445 56.144 333.605 54.512 333.925 52.72L335.941 41.488C338.181 28.816 347.077 22.48 362.629 22.48ZM365.221 43.408C365.349 42.768 365.413 41.968 365.413 41.008C365.413 39.984 364.997 38.864 364.165 37.648C363.333 36.432 361.861 35.824 359.749 35.824C357.701 35.824 355.973 36.528 354.565 37.936C353.157 39.28 352.261 41.104 351.877 43.408L350.629 50.608C350.501 51.248 350.437 52.08 350.437 53.104C350.437 54.064 350.853 55.12 351.685 56.272C352.517 57.424 353.957 58 356.005 58C358.117 58 359.877 57.296 361.285 55.888C362.693 54.416 363.589 52.656 363.973 50.608L365.221 43.408ZM430.352 71.536C428.944 79.664 425.712 86.096 420.656 90.832C415.664 95.568 409.936 97.936 403.472 97.936C397.008 97.936 392.336 96.752 389.456 94.384C386.64 92.016 385.232 88.912 385.232 85.072C385.232 79.44 388.816 74.544 395.984 70.384C390.544 68.656 387.824 64.528 387.824 58C387.824 56.4 387.984 54.64 388.304 52.72L390.224 41.488C391.248 35.728 393.616 31.152 397.328 27.76C401.04 24.304 405.84 22.576 411.728 22.576C417.68 22.576 421.744 24.016 423.92 26.896L424.496 23.824H438.8L430.352 71.536ZM405.008 50.608C404.88 51.184 404.816 51.984 404.816 53.008C404.816 54.032 405.296 55.056 406.256 56.08C407.216 57.04 408.816 57.52 411.056 57.52C413.36 57.52 415.344 56.624 417.008 54.832L419.888 38.704C418.992 37.104 417.296 36.304 414.8 36.304C412.304 36.304 410.352 36.944 408.944 38.224C407.536 39.504 406.64 41.232 406.256 43.408L405.008 50.608ZM405.68 84.208C409.84 84.208 412.56 80.432 413.84 72.88L414.8 67.312C405.904 71.472 401.456 75.664 401.456 79.888C401.456 81.168 401.808 82.192 402.512 82.96C403.28 83.792 404.336 84.208 405.68 84.208Z" fill="#654300"/>
</svg>
