<svg width="35" height="35" viewBox="0 0 35 35" fill="none" xmlns="http://www.w3.org/2000/svg">
<g id="ion:document-attach">
<path id="Vector" d="M31.4453 16.4062H21.875C21.0048 16.4062 20.1702 16.0605 19.5548 15.4452C18.9395 14.8298 18.5938 13.9952 18.5938 13.125V3.55469C18.5938 3.48217 18.5649 3.41262 18.5137 3.36134C18.4624 3.31006 18.3928 3.28125 18.3203 3.28125H14.6802C14.5525 3.04482 14.4038 2.82038 14.2358 2.61064C13.4477 1.63242 12.2767 1.09375 10.9375 1.09375C8.36172 1.09375 6.5625 3.11787 6.5625 6.01562V15.8594C6.5625 17.5684 7.95293 18.5938 9.29688 18.5938C9.65705 18.5977 10.0144 18.5296 10.3479 18.3936C10.6814 18.2576 10.9844 18.0563 11.2391 17.8016C11.4938 17.5469 11.6951 17.2439 11.8311 16.9104C11.9671 16.5769 12.0352 16.2196 12.0312 15.8594V5.46875C12.0312 5.17867 11.916 4.90047 11.7109 4.69535C11.5058 4.49023 11.2276 4.375 10.9375 4.375C10.6474 4.375 10.3692 4.49023 10.1641 4.69535C9.95898 4.90047 9.84375 5.17867 9.84375 5.46875V15.8594C9.84613 15.9318 9.83361 16.004 9.80697 16.0714C9.78033 16.1389 9.74013 16.2001 9.68886 16.2514C9.6376 16.3026 9.57636 16.3428 9.50894 16.3695C9.44151 16.3961 9.36933 16.4086 9.29688 16.4062C9.14443 16.4062 8.75 16.3078 8.75 15.8594V6.01562C8.75 4.69355 9.3249 3.28125 10.9375 3.28125C12.9671 3.28125 13.125 5.34229 13.125 5.97324V15.4581C13.125 16.651 12.7511 17.7297 12.0716 18.4974C11.3818 19.2773 10.4228 19.6875 9.29688 19.6875C8.171 19.6875 7.21191 19.2773 6.52217 18.4974C5.84268 17.7297 5.46875 16.651 5.46875 15.4581V9.84375C5.46875 9.55367 5.35352 9.27547 5.1484 9.07035C4.94328 8.86523 4.66508 8.75 4.375 8.75C4.08492 8.75 3.80672 8.86523 3.6016 9.07035C3.39648 9.27547 3.28125 9.55367 3.28125 9.84375V15.4581C3.28125 18.9793 5.5501 21.5852 8.75 21.8518V29.5312C8.75 30.6916 9.21094 31.8044 10.0314 32.6248C10.8519 33.4453 11.9647 33.9062 13.125 33.9062H27.3438C28.5041 33.9062 29.6169 33.4453 30.4373 32.6248C31.2578 31.8044 31.7188 30.6916 31.7188 29.5312V16.6797C31.7188 16.6072 31.6899 16.5376 31.6387 16.4863C31.5874 16.4351 31.5178 16.4062 31.4453 16.4062Z" fill="white"/>
<path id="Vector_2" d="M21.875 14.2187H30.7487C30.7757 14.2186 30.802 14.2105 30.8244 14.1955C30.8468 14.1805 30.8642 14.1592 30.8745 14.1343C30.8848 14.1094 30.8875 14.082 30.8823 14.0555C30.8771 14.0291 30.8641 14.0048 30.8451 13.9856L21.0144 4.15487C20.9952 4.13587 20.9709 4.12294 20.9445 4.11771C20.918 4.11248 20.8906 4.11519 20.8657 4.12549C20.8408 4.13579 20.8195 4.15322 20.8045 4.1756C20.7894 4.19798 20.7814 4.2243 20.7812 4.25126V13.125C20.7812 13.4151 20.8965 13.6933 21.1016 13.8984C21.3067 14.1035 21.5849 14.2187 21.875 14.2187Z" fill="white"/>
</g>
</svg>
